#!OML:ASF E:\CV Data\Top Level 1\Subject 1\Session 1\player.ASF
:FULLY-SPECIFIED
:DEGREES
503
root -0.205159 16.8283 10.1647 -160.334 -209.365 164.707
lowerback 26.386 7.2544 2.62491
upperback 4.06252 10.4021 2.61274
thorax -9.99733 4.80356 -2.09776
lowerneck 2.99118 -17.3084 -18.0237
upperneck -24.9886 -20.0638 36.6767
head -1.06519 -11.6889 14.4795
rclavicle -1.20861e-013 9.54166e-014
rhumerus 340.589 60.3245 261.489
rradius 55.4884
rwrist -19.9813
rhand -23.9647 20.2998
rfingers 7.12502
rthumb 2.51142 -9.66518
lclavicle -1.20861e-013 9.54166e-014
lhumerus -43.4051 12.022 64.6026
lradius 52.4362
lwrist 21.9231
lhand -15.2197 22.8152
lfingers 7.12502
lthumb 10.9528 52.5095
rfemur -6.14863 -8.87086 14.0631
rtibia 60.2554
rfoot -2.21876 -14.3881
rtoes 10.3519
lfemur -63.7865 -2.08396 -4.47516
ltibia 34.4812
lfoot 5.41806 -11.1831
ltoes 3.74091
504
root -0.259036 16.8314 10.1681 -161.137 -208.926 164.464
lowerback 26.4094 7.20648 2.40366
upperback 4.05136 10.277 2.56397
thorax -10.0551 4.75058 -1.99488
lowerneck 2.83483 -17.2203 -18.0845
upperneck -24.5531 -20.0044 36.7463
head -0.912514 -11.6261 14.4711
rclavicle 1.17283e-013 -5.1684e-014
rhumerus 343.287 55.6021 264.572
rradius 53.0861
rwrist -19.5849
rhand -25.1674 19.6664
rfingers 7.12502
rthumb 1.34989 -10.309
lclavicle 1.17283e-013 -5.1684e-014
lhumerus -43.4845 11.8228 65.022
lradius 52.1559
lwrist 23.5658
lhand -14.3557 23.0048
lfingers 7.12502
lthumb 11.7861 52.6532
rfemur -6.67502 -9.35838 14.0255
rtibia 60.0973
rfoot -3.41394 -13.1166
rtoes 8.48833
lfemur -62.9926 -2.17389 -3.79269
ltibia 34.6187
lfoot 5.35694 -10.5355
ltoes 3.14023
505
root -0.313725 16.8323 10.1707 -161.933 -208.457 164.246
lowerback 26.4248 7.16712 2.18276
upperback 4.03388 10.1605 2.49778
thorax -10.1114 4.7014 -1.913
lowerneck 2.66991 -17.1394 -18.1299
upperneck -24.0854 -19.9616 36.8027
head -0.749925 -11.5689 14.4496
rclavicle 2.70347e-014 3.4191e-014
rhumerus 345.46 50.4332 266.979
rradius 50.7451
rwrist -18.503
rhand -26.4217 19.0258
rfingers 7.12502
rthumb 0.138497 -10.9539
lclavicle 2.70347e-014 3.4191e-014
lhumerus -43.5037 11.5942 65.4866
lradius 51.8716
lwrist 25.3104
lhand -13.6299 23.127
lfingers 7.12502
lthumb 12.4859 52.7339
rfemur -7.20265 -9.82096 14.0443
rtibia 59.8796
rfoot -4.6237 -11.7841
rtoes 6.58172
lfemur -62.1958 -2.2503 -3.15352
ltibia 34.7742
lfoot 5.2933 -9.9082
ltoes 2.55168
506
root -0.371113 16.831 10.1706 -162.684 -208.012 164.065
lowerback 26.417 7.11659 1.96376
upperback 4.0039 10.0293 2.42421
thorax -10.1679 4.64546 -1.83302
lowerneck 2.48119 -17.0648 -18.1706
upperneck -23.5891 -19.9322 36.8483
head -0.574849 -11.5142 14.4167
rclavicle -2.82274e-014 -4.21423e-014
rhumerus 347.232 44.8887 268.884
rradius 48.5879
rwrist -17.0298
rhand -27.6169 18.3623
rfingers 7.12502
rthumb -1.01589 -11.615
lclavicle -2.82274e-014 -4.21423e-014
lhumerus -43.4636 11.3501 66.0037
lradius 51.584
lwrist 27.067
lhand -13.0308 23.1928
lfingers 7.12502
lthumb 13.0635 52.7637
rfemur -7.7704 -10.3114 14.1355
rtibia 59.6275
rfoot -5.85585 -10.4123
rtoes 4.57576
lfemur -61.4443 -2.30274 -2.58926
ltibia 34.9196
lfoot 5.24229 -9.37311
ltoes 2.00701
507
root -0.433255 16.8274 10.166 -163.359 -207.647 163.928
lowerback 26.3732 7.03345 1.7488
upperback 3.95006 9.85859 2.35503
thorax -10.2335 4.5713 -1.73443
lowerneck 2.26617 -16.9917 -18.2286
upperneck -23.0666 -19.911 36.886
head -0.38538 -11.4577 14.3782
rclavicle 1.67178e-013 7.95139e-016
rhumerus 348.684 39.1168 270.423
rradius 46.7556
rwrist -15.5431
rhand -28.6689 17.6914
rfingers 7.12502
rthumb -2.03198 -12.2787
lclavicle 1.67178e-013 7.95139e-016
lhumerus -43.3768 11.101 66.5789
lradius 51.2957
lwrist 28.7359
lhand -12.5121 23.2182
lfingers 7.12502
lthumb 13.5635 52.7564
rfemur -8.41291 -10.8776 14.3206
rtibia 59.3585
rfoot -7.10437 -9.02903
rtoes 2.4082
lfemur -60.794 -2.33199 -2.11436
ltibia 35.0404
lfoot 5.21439 -8.981
ltoes 1.52713
508
root -0.500459 16.8216 10.1567 -163.975 -207.367 163.831
lowerback 26.3201 6.92301 1.54211
upperback 3.8731 9.6562 2.28585
thorax -10.3188 4.48172 -1.62992
lowerneck 2.03332 -16.9247 -18.2787
upperneck -22.5248 -19.9012 36.9179
head -0.187066 -11.404 14.3321
rclavicle 4.75095e-014 1.39149e-015
rhumerus 349.861 33.3032 271.682
rradius 45.3642
rwrist -14.4082
rhand -29.5737 17.0927
rfingers 7.12502
rthumb -2.90576 -12.8672
lclavicle 4.75095e-014 1.39149e-015
lhumerus -43.2381 10.8111 67.2105
lradius 51.0134
lwrist 30.2147
lhand -12.047 23.2039
lfingers 7.12502
lthumb 14.0118 52.7117
rfemur -9.11397 -11.5137 14.5996
rtibia 59.077
rfoot -8.35335 -7.65038
rtoes 0.13266
lfemur -60.228 -2.32774 -1.73242
ltibia 35.1322
lfoot 5.20707 -8.74478
ltoes 1.11629
509
root -0.571489 16.8137 10.1447 -164.554 -207.15 163.765
lowerback 26.2526 6.79454 1.33387
upperback 3.78525 9.43129 2.22302
thorax -10.4099 4.38217 -1.50871
lowerneck 1.77355 -16.8654 -18.3314
upperneck -21.9574 -19.9061 36.9467
head 0.0263298 -11.3531 14.2788
rclavicle -2.06736e-014 -5.17834e-014
rhumerus 350.813 27.703 272.755
rradius 44.4863
rwrist -13.8711
rhand -30.209 16.6182
rfingers 7.12502
rthumb -3.51928 -13.3325
lclavicle -2.06736e-014 -5.17834e-014
lhumerus -43.0571 10.4963 67.896
lradius 50.7459
lwrist 31.4155
lhand -11.593 23.1371
lfingers 7.12502
lthumb 14.4492 52.6141
rfemur -9.8443 -12.197 14.9634
rtibia 58.7647
rfoot -9.58514 -6.281
rtoes -2.2928
lfemur -59.7219 -2.29863 -1.42216
ltibia 35.2155
lfoot 5.20332 -8.62432
ltoes 0.750763
510
root -0.645315 16.8034 10.1294 -165.115 -206.99 163.724
lowerback 26.1918 6.64908 1.14233
upperback 3.68874 9.18977 2.16227
thorax -10.511 4.27431 -1.38953
lowerneck 1.49364 -16.8162 -18.3784
upperneck -21.3709 -19.9283 36.9723
head 0.251321 -11.3076 14.2179
rclavicle 8.26944e-014 -2.5196e-014
rhumerus 351.568 22.6236 273.713
rradius 44.1579
rwrist -14.2462
rhand -30.6605 16.2958
rfingers 7.12502
rthumb -3.95532 -13.6472
lclavicle 8.26944e-014 -2.5196e-014
lhumerus -42.8433 10.1477 68.6321
lradius 50.5251
lwrist 32.3193
lhand -11.161 23.0369
lfingers 7.12502
lthumb 14.8654 52.4836
rfemur -10.579 -12.922 15.4019
rtibia 58.4047
rfoot -10.7841 -4.92093
rtoes -4.68379
lfemur -59.2712 -2.26685 -1.16336
ltibia 35.3143
lfoot 5.19759 -8.58461
ltoes 0.40617
511
root -0.7175 16.7909 10.115 -165.739 -206.784 163.689
lowerback 26.1789 6.51999 0.968532
upperback 3.60495 8.97167 2.08609
thorax -10.6156 4.17596 -1.30862
lowerneck 1.20252 -16.7774 -18.4004
upperneck -20.7626 -19.9681 36.998
head 0.485421 -11.2696 14.1489
rclavicle -9.79014e-015 -1.84373e-014
rhumerus 352.16 18.2385 274.584
rradius 44.321
rwrist -15.5763
rhand -30.9107 16.1824
rfingers 7.12502
rthumb -4.19687 -13.756
lclavicle -9.79014e-015 -1.84373e-014
lhumerus -42.6096 9.77448 69.3807
lradius 50.3682
lwrist 32.9123
lhand -10.7502 22.9057
lfingers 7.12502
lthumb 15.2611 52.3227
rfemur -11.2184 -13.6017 15.8672
rtibia 57.9688
rfoot -11.9447 -3.55154
rtoes -6.96258
lfemur -58.7501 -2.2492 -0.908031
ltibia 35.4537
lfoot 5.16374 -8.50619
ltoes 0.0347968
512
root -0.787156 16.7761 10.1016 -166.429 -206.524 163.658
lowerback 26.1974 6.40965 0.815702
upperback 3.54429 8.78113 2.00105
thorax -10.7044 4.08979 -1.25947
lowerneck 0.907153 -16.7486 -18.4048
upperneck -20.1462 -20.0243 37.0198
head 0.723616 -11.2388 14.0734
rclavicle 1.11816e-013 -2.28602e-015
rhumerus 352.645 14.6693 275.437
rradius 44.852
rwrist -17.7237
rhand -30.9948 16.4128
rfingers 7.12502
rthumb -4.2781 -13.524
lclavicle 1.11816e-013 -2.28602e-015
lhumerus -42.3632 9.40213 70.1438
lradius 50.3076
lwrist 33.2344
lhand -10.3768 22.7502
lfingers 7.12502
lthumb 15.6207 52.1395
rfemur -11.7543 -14.2377 16.3495
rtibia 57.4562
rfoot -13.0612 -2.18499
rtoes -9.09251
lfemur -58.1574 -2.26459 -0.641367
ltibia 35.642
lfoot 5.10372 -8.36033
ltoes -0.357635
